<?xml version="1.0" encoding="UTF-8"?>
<svg version="1.1" xmlns="http://www.w3.org/2000/svg" width="500" height="500">
<path d="M0 0 C165 0 330 0 500 0 C500 165 500 330 500 500 C335 500 170 500 0 500 C0 335 0 170 0 0 Z " fill="#FEFEFE" transform="translate(0,0)"/>
<path d="M0 0 C1.19921875 1.5625 1.19921875 1.5625 1.13671875 3.75 C0.3336958 6.15906884 -0.58226127 8.19064913 -1.73828125 10.4375 C-6.23418242 19.24946629 -7.43650241 28.36360821 -4.890625 38.01171875 C-1.17561099 48.29669324 4.54965027 57.43200477 14.3984375 62.75 C17.92366321 64.37794804 21.22984956 65.57003217 25.01171875 66.5 C28.91015732 67.79947952 30.01459752 69.12952378 32.19921875 72.5625 C32.67359375 73.5525 33.14796875 74.5425 33.63671875 75.5625 C36.80755879 81.65051287 41.72651236 85.47896543 48.19921875 87.5625 C51.33313879 87.9323662 54.40795971 88.12274148 57.5625 88.19140625 C60.19921875 88.5625 60.19921875 88.5625 62.05078125 89.82421875 C63.98575033 92.75299848 63.35480333 95.11942458 62.90234375 98.48828125 C59.88814147 111.66704342 52.87807625 127.05087978 43.19921875 136.5625 C42.36519531 136.84996094 41.53117188 137.13742187 40.671875 137.43359375 C37.23206341 139.00406065 36.84913011 141.22555427 35.19921875 144.5625 C28.13131598 150.67663748 19.89397308 155.22546946 11.19921875 158.5625 C10.13574219 159.02785156 9.07226562 159.49320313 7.9765625 159.97265625 C-8.84530357 166.43153317 -31.12973056 166.54107936 -47.80078125 159.5625 C-48.83589844 159.18867188 -49.87101562 158.81484375 -50.9375 158.4296875 C-70.60976467 150.97545421 -87.7019432 134.00289836 -96.4296875 115.01953125 C-104.65369849 95.82691362 -106.65043067 71.23072271 -98.80078125 51.5625 C-94.03001052 40.22503329 -88.50797045 27.8586094 -76.80078125 22.5625 C-76.12636994 20.8989521 -75.46074915 19.23183058 -74.80078125 17.5625 C-60.31802884 2.75059413 -18.62114238 -14.86459955 0 0 Z " fill="#F3B77C" transform="translate(269.80078125,163.4375)"/>
<path d="M0 0 C3.28485946 3.00885887 6.10438873 6.08566497 8.8359375 9.59765625 C6.59765625 10.32421875 6.59765625 10.32421875 3.8359375 10.59765625 C1.79296875 9.18359375 1.79296875 9.18359375 -0.3515625 6.97265625 C-30.24386651 -21.50253113 -72.72124494 -38.24236905 -113.98901367 -37.68334961 C-116.382562 -37.61587311 -118.77228465 -37.51621525 -121.1640625 -37.40234375 C-122.44700195 -37.34651123 -122.44700195 -37.34651123 -123.75585938 -37.28955078 C-167.00267011 -35.13352826 -207.48502 -14.78085474 -236.7265625 16.97363281 C-255.90631201 38.64205906 -269.0879796 64.32868055 -275.1640625 92.59765625 C-275.42445313 93.75894043 -275.68484375 94.92022461 -275.953125 96.11669922 C-278.11685339 106.24682041 -278.64970127 116.00999141 -278.5390625 126.34765625 C-278.53407745 127.13546478 -278.52909241 127.92327332 -278.5239563 128.73495483 C-278.32120759 156.1302909 -273.18794684 184.82213835 -258.37890625 208.4453125 C-257.77755859 209.51072266 -257.77755859 209.51072266 -257.1640625 210.59765625 C-257.9765625 212.91015625 -257.9765625 212.91015625 -259.1640625 214.59765625 C-263.34971258 211.05595234 -265.278373 206.84846123 -267.5390625 201.97265625 C-267.9304541 201.13669922 -268.3218457 200.30074219 -268.72509766 199.43945312 C-272.56254269 191.0490805 -275.57276696 182.44572471 -278.1640625 173.59765625 C-278.41808838 172.73648193 -278.67211426 171.87530762 -278.93383789 170.98803711 C-291.27577464 127.65947364 -283.25351963 81.73934646 -262.1640625 42.59765625 C-259.76834587 38.39720297 -257.05142376 34.47512798 -254.1640625 30.59765625 C-253.42929688 29.58058594 -252.69453125 28.56351562 -251.9375 27.515625 C-242.57686016 14.7815896 -231.82383995 3.09719208 -219.1640625 -6.40234375 C-218.30683594 -7.06363281 -217.44960937 -7.72492188 -216.56640625 -8.40625 C-194.85111744 -24.74868385 -170.70910621 -34.92500379 -144.1640625 -40.40234375 C-143.09542969 -40.63050781 -142.02679688 -40.85867187 -140.92578125 -41.09375 C-90.71100819 -50.03610685 -37.93971986 -33.07731356 0 0 Z " fill="#4D2F17" transform="translate(364.1640625,119.40234375)"/>
<path d="M0 0 C0.71979034 -0.00705963 1.43958069 -0.01411926 2.18118286 -0.02139282 C31.9438689 -0.24690717 31.9438689 -0.24690717 45.390625 3.203125 C46.20563477 3.40180176 47.02064453 3.60047852 47.86035156 3.80517578 C76.32444882 10.85518874 98.98332794 24.31985737 120.390625 44.203125 C121.04546875 44.79222656 121.7003125 45.38132813 122.375 45.98828125 C133.80622753 56.73457985 142.27810156 70.33943739 149.390625 84.203125 C149.71401855 84.82541992 150.03741211 85.44771484 150.37060547 86.08886719 C160.7640233 106.32223871 165.57866488 128.639141 165.57592773 151.30273438 C165.57809821 153.30342714 165.59656466 155.30408067 165.61523438 157.3046875 C165.63412681 170.1011667 164.34014769 182.43023966 160.640625 194.703125 C160.37677002 195.59547852 160.11291504 196.48783203 159.84106445 197.40722656 C154.13487016 216.28430082 145.94484655 233.89309872 133.390625 249.203125 C132.9280127 249.77643555 132.46540039 250.34974609 131.98876953 250.94042969 C130.52943027 252.74556785 129.05713164 254.53907585 127.578125 256.328125 C127.12195801 256.88532227 126.66579102 257.44251953 126.19580078 258.01660156 C123.83742871 260.81048577 121.84799283 262.89754554 118.390625 264.203125 C117.58984375 262.5390625 117.58984375 262.5390625 117.390625 260.203125 C118.93148034 258.21631352 120.42249335 256.5762496 122.203125 254.828125 C147.35778981 228.64130854 160.53905255 192.48502126 160.63085938 156.50439453 C160.64048711 154.23561816 160.67155554 151.96778068 160.703125 149.69921875 C160.98091603 111.33203404 144.39910411 76.81648304 118.390625 49.203125 C117.81441406 48.56246094 117.23820313 47.92179687 116.64453125 47.26171875 C97.93350573 27.30051335 72.42890247 15.30060977 46.390625 8.203125 C45.64135742 7.9983252 44.89208984 7.79352539 44.12011719 7.58251953 C33.48725679 4.86567651 22.60955186 4.93317184 11.703125 4.890625 C11.00760529 4.88667725 10.31208557 4.88272949 9.5954895 4.87866211 C-3.24716215 4.84378884 -16.0162099 5.75670572 -28.421875 9.328125 C-29.15905762 9.53622803 -29.89624023 9.74433105 -30.65576172 9.95874023 C-40.05258732 12.74957161 -49.15924955 16.75990049 -57.80371094 21.37451172 C-58.86380371 21.9374292 -58.86380371 21.9374292 -59.9453125 22.51171875 C-60.57743652 22.85904053 -61.20956055 23.2063623 -61.86083984 23.56420898 C-63.609375 24.203125 -63.609375 24.203125 -66.609375 23.203125 C-66.609375 22.213125 -66.609375 21.223125 -66.609375 20.203125 C-49.60236611 11.17181683 -32.55503426 4.77343161 -13.609375 1.203125 C-12.69679932 1.0273291 -11.78422363 0.8515332 -10.84399414 0.67041016 C-7.21695006 0.14643383 -3.65631146 0.02375111 0 0 Z " fill="#4D2F17" transform="translate(238.609375,93.796875)"/>
<path d="M0 0 C1.5776961 3.1553922 0.06157231 6.01851541 -0.875 9.25 C-5.69716865 26.17747478 -5.55902673 43.28634726 0 60 C0.350625 61.05445313 0.70125 62.10890625 1.0625 63.1953125 C4.3635066 71.97507311 9.58100602 80.63406427 16.27734375 87.25 C18 89 18 89 18 91 C18.56976563 91.25394531 19.13953125 91.50789063 19.7265625 91.76953125 C22.27004485 93.14615829 24.19220563 94.79152332 26.375 96.6875 C44.66285857 111.50604423 66.2438102 114.5666285 89 113 C93.22797549 112.31921065 97.15922 111.16077291 101.20703125 109.77734375 C104.03069174 108.99145782 105.30689496 108.96318717 108 110 C88.44655781 120.87660222 66.9024995 124.76400301 44.8125 119.4375 C33.0987571 115.6695353 23.2824826 110.05367453 14 102 C13.1646875 101.35675781 12.329375 100.71351563 11.46875 100.05078125 C-1.6425706 89.15925702 -9.41578562 71.5547216 -12 55 C-13.56676128 34.9977966 -10.88982801 18.49539128 -1 1 C-0.67 0.67 -0.34 0.34 0 0 Z " fill="#E1A873" transform="translate(184,201)"/>
<path d="M0 0 C1.80078125 1.4375 1.80078125 1.4375 3 3 C2.90347574 6.37834904 1.5787422 8.92801799 0.0625 11.875 C-4.43340117 20.68696629 -5.63572116 29.80110821 -3.08984375 39.44921875 C0.62517026 49.73419324 6.35043152 58.86950477 16.19921875 64.1875 C19.72444446 65.81544804 23.03063081 67.00753217 26.8125 67.9375 C30.71093857 69.23697952 31.81537877 70.56702378 34 74 C34.474375 74.99 34.94875 75.98 35.4375 77 C38.60834004 83.08801287 43.52729361 86.91646543 50 89 C53.13392004 89.3698662 56.20874096 89.56024148 59.36328125 89.62890625 C62 90 62 90 63.8515625 91.26171875 C65.78653158 94.19049848 65.15558458 96.55692458 64.703125 99.92578125 C61.50050618 113.92834244 54.12757865 127.06310842 45 138 C43.68 137.67 42.36 137.34 41 137 C41.61844075 133.46605287 43.04065294 131.34350604 45.1875 128.5 C52.43364867 118.32866427 56.20828437 108.02079905 59 96 C58.17757812 95.92523438 57.35515625 95.85046875 56.5078125 95.7734375 C47.60870603 94.72527484 40.4404248 92.72265519 34.15625 86.0390625 C31.77830019 82.99668554 30.14463489 80.41783412 28.875 76.75 C26.14143713 72.74077445 22.735161 72.44444123 18.19921875 71.109375 C8.5999577 67.78069351 0.34960001 60.05144021 -4.53515625 51.2265625 C-5.80842189 48.51669685 -6.93955974 45.79921883 -8 43 C-8.433125 41.88625 -8.86625 40.7725 -9.3125 39.625 C-11.84589727 26.26708714 -8.41141227 15.98566103 -3 4 C-26.07953526 3.39086271 -45.32383195 5.75414591 -65 19 C-65.71671875 19.73605469 -66.4334375 20.47210938 -67.171875 21.23046875 C-68.07679688 22.10638672 -68.07679688 22.10638672 -69 23 C-71.75 22.75 -71.75 22.75 -74 22 C-69.75946743 12.14825767 -56.43781032 6.83629512 -47 3 C-32.50025835 -2.01810089 -14.90318689 -5.01240279 0 0 Z " fill="#4C2C11" transform="translate(268,162)"/>
<path d="M0 0 C0.99 0 1.98 0 3 0 C3.24510572 2.88624492 3.32596153 4.50164545 1.71484375 6.96484375 C1.12832031 7.61582031 0.54179687 8.26679688 -0.0625 8.9375 C-14.08335353 26.10878823 -16.64721364 46.53215665 -15 68 C-13.34658251 81.694315 -7.39080697 94.65246046 1.51953125 105.1328125 C3 107 3 107 3.94921875 109.1171875 C5.2828247 111.5067714 6.5428731 111.88604135 9 113 C10.19559387 114.02984108 11.36071786 115.09568795 12.5 116.1875 C22.11661856 124.69042927 32.84314413 128.68698297 45 132 C45.62229492 132.17958252 46.24458984 132.35916504 46.88574219 132.54418945 C67.2328466 136.93079961 88.54912132 131.47663603 106 121 C108.24435761 119.42629363 110.3640512 117.83905783 112.421875 116.03125 C114 115 114 115 118 115 C117.78094062 118.65958017 117.22956301 119.79500795 114.4453125 122.28125 C107.52044156 126.90869317 100.8125071 131.0015743 93 134 C91.93652344 134.46535156 90.87304688 134.93070313 89.77734375 135.41015625 C72.95547768 141.86903317 50.67105069 141.97857936 34 135 C32.96488281 134.62617188 31.92976563 134.25234375 30.86328125 133.8671875 C11.19101658 126.41295421 -5.90116195 109.44039836 -14.62890625 90.45703125 C-22.85291724 71.26441362 -24.84964942 46.66822271 -17 27 C-12.78874925 16.99220086 -7.75763717 7.75763717 0 0 Z " fill="#4B2B11" transform="translate(188,188)"/>
<path d="M0 0 C0.1603001 5.53651894 -0.28154421 10.48443997 -1.625 15.875 C-1.80538818 16.6076709 -1.98577637 17.3403418 -2.17163086 18.09521484 C-9.54888919 47.17738795 -22.79879508 72.80207932 -43 95 C-43.83789062 95.92167969 -44.67578125 96.84335937 -45.5390625 97.79296875 C-75.1719055 128.81345244 -118.35772839 148.10338789 -161.12890625 149.33984375 C-174.5773992 149.62933325 -187.94348402 149.60772152 -201 146 C-200.505 144.02 -200.505 144.02 -200 142 C-199.33355469 142.06058594 -198.66710937 142.12117187 -197.98046875 142.18359375 C-196.02233693 142.36160573 -194.06398254 142.53717836 -192.10546875 142.7109375 C-190.23128386 142.88538993 -188.35822513 143.07385901 -186.48828125 143.2890625 C-144.33101851 147.92172874 -100.50263506 135.48156816 -66.9453125 109.6484375 C-64.253366 107.47847508 -61.61927392 105.25685866 -59 103 C-58.22140625 102.35546875 -57.4428125 101.7109375 -56.640625 101.046875 C-50.63438047 95.95192275 -45.8625448 90.17202724 -41 84 C-40.03126953 82.86498047 -40.03126953 82.86498047 -39.04296875 81.70703125 C-20.82681833 60.15187159 -8.89596111 31.80183015 -4.625 3.99609375 C-3.90196994 1.68691649 -2.75828795 0 0 0 Z " fill="#4B2D14" transform="translate(419,269)"/>
<path d="M0 0 C1.32 0.66 2.64 1.32 4 2 C3.93071289 2.68570068 3.86142578 3.37140137 3.79003906 4.07788086 C2.99952647 12.57448458 2.75743292 21.03203001 2.75 29.5625 C2.74932526 30.26487793 2.74865051 30.96725586 2.74795532 31.69091797 C2.81106439 73.22258078 19.61387049 110.23530335 48.72265625 139.76171875 C68.05417674 157.89747509 91.6026278 169.88873578 117 177 C117 178.32 117 179.64 117 181 C93.27889223 178.11011885 69.8409076 164.37622963 52 149 C51.04480469 148.17886719 50.08960938 147.35773438 49.10546875 146.51171875 C21.52033289 122.2856256 1.45218399 85.82145683 -2 49 C-2.13547051 46.26595308 -2.16365064 43.53789539 -2.16796875 40.80078125 C-2.17129715 40.04387497 -2.17462555 39.28696869 -2.17805481 38.50712585 C-2.18308389 36.91466879 -2.18546439 35.32220133 -2.18530273 33.72973633 C-2.18747871 31.33591641 -2.20564859 28.94256621 -2.22460938 26.54882812 C-2.25665598 17.48456944 -1.74791805 8.92379011 0 0 Z " fill="#4E3017" transform="translate(98,217)"/>
<path d="M0 0 C5.04314401 2.03871779 8.97219575 5.03597553 11.37109375 9.984375 C12.88354875 14.83174632 12.99208338 19.53878889 11.08203125 24.27734375 C8.52427794 28.72237135 5.77192787 31.9177042 1 34 C-4.58322722 34.73726247 -9.31899723 34.75044766 -14.5 32.4375 C-19.10236626 27.9501929 -21.21442389 24.38191661 -21.4375 18 C-21.15318697 12.48098236 -20.31332218 8.1600586 -16.11328125 4.23828125 C-10.95704802 0.37785532 -6.40590626 -1.49925466 0 0 Z " fill="#482910" transform="translate(241,337)"/>
<path d="M0 0 C3.77702297 2.63513231 6.60374735 5.7074947 8.6875 9.875 C9.1947965 15.43031248 9.45010422 20.29330236 7 25.375 C2.62805516 30.10142686 -0.95183026 32.9486683 -7.5 33.25 C-12.79456927 33.18953999 -16.34367165 31.29286159 -20.3125 27.875 C-23.90271364 23.12665293 -24.78459662 18.11925868 -24.7265625 12.2578125 C-23.80106089 6.93181268 -19.96576974 3.3445731 -16.0625 -0.125 C-10.68588596 -2.08013238 -5.37640181 -1.82594779 0 0 Z " fill="#46270E" transform="translate(284.3125,336.125)"/>
<path d="M0 0 C0.495 3.465 0.495 3.465 1 7 C-3.95 10.3 -8.9 13.6 -14 17 C-9.57112557 18.26539269 -5.54255643 19.35066926 -1.0625 20.125 C-0.10472656 20.29257812 0.85304687 20.46015625 1.83984375 20.6328125 C2.55269531 20.75398438 3.26554687 20.87515625 4 21 C4.495 24.96 4.495 24.96 5 29 C-9.85 33.95 -9.85 33.95 -25 39 C-25.66 38.34 -26.32 37.68 -27 37 C-27 35.02 -27 33.04 -27 31 C-18.585 28.525 -18.585 28.525 -10 26 C-16.6 25.01 -23.2 24.02 -30 23 C-30 18 -30 18 -28.62304688 16.60620117 C-27.99462891 16.25533447 -27.36621094 15.90446777 -26.71875 15.54296875 C-26.10966797 15.19000732 -25.50058594 14.8370459 -24.87304688 14.47338867 C-24.08994141 14.04904541 -23.30683594 13.62470215 -22.5 13.1875 C-20.025 11.805625 -17.55 10.42375 -15 9 C-20.94 9.33 -26.88 9.66 -33 10 C-33.33 7.69 -33.66 5.38 -34 3 C-26.86335866 1.68461905 -19.70578609 0.65655222 -12.5 -0.1875 C-11.72285645 -0.28337402 -10.94571289 -0.37924805 -10.14501953 -0.47802734 C-6.48091608 -0.89118797 -3.53287448 -1.0399187 0 0 Z " fill="#47280F" transform="translate(160,254)"/>
<path d="M0 0 C3.09462013 2.57885011 4.58510054 4.10908652 5.44140625 8.01171875 C5.79056091 14.28523964 3.92852852 20.48641236 1 26 C-1.62085079 28.490352 -3.5154044 29.44672184 -7.125 29.5 C-12.66332819 29.31630752 -17.52272719 27.21618841 -22 24 C-24.71269475 19.93095788 -24.53299156 15.72312519 -24 11 C-22.44290236 6.79583638 -20.94145099 4.17817028 -17 2 C-11.04705365 -0.64706112 -6.34809979 -1.79862827 0 0 Z " fill="#4B2B11" transform="translate(305,173)"/>
<path d="M0 0 C8.67015707 10.83769634 8.67015707 10.83769634 9.5625 16.6875 C8.90129504 20.58126256 7.8142208 22.26618551 5 25 C1.49852959 26.1671568 -1.32670036 26.13357453 -5 26 C-5.66 25.67 -6.32 25.34 -7 25 C-8.65 30.28 -10.3 35.56 -12 41 C-13.32 39.35 -14.64 37.7 -16 36 C-16.33 35.67 -16.66 35.34 -17 35 C-16.58784081 29.12673157 -15.23271642 24.43617912 -13 19 C-13.54269531 19.3609375 -14.08539063 19.721875 -14.64453125 20.09375 C-15.35996094 20.5578125 -16.07539063 21.021875 -16.8125 21.5 C-17.52019531 21.9640625 -18.22789062 22.428125 -18.95703125 22.90625 C-21 24 -21 24 -24 24 C-24.99 22.02 -25.98 20.04 -27 18 C-18.09 12.06 -9.18 6.12 0 0 Z " fill="#47280F" transform="translate(168,288)"/>
<path d="M0 0 C-0.33 6.6 -0.66 13.2 -1 20 C5.16118427 21.23469474 5.16118427 21.23469474 11.32568359 22.45263672 C12.09219238 22.61006348 12.85870117 22.76749023 13.6484375 22.9296875 C14.43395996 23.08679199 15.21948242 23.24389648 16.02880859 23.40576172 C18 24 18 24 20 26 C15.49478343 30.86089156 15.49478343 30.86089156 11.69140625 31.21484375 C5.81407894 30.7105489 0.50969268 29.04391825 -5 27 C-2.69 30.3 -0.38 33.6 2 37 C-0.25 41.5 -0.25 41.5 -4 43 C-4.33209473 42.52691406 -4.66418945 42.05382812 -5.00634766 41.56640625 C-6.54459476 39.37668509 -8.08478779 37.18833933 -9.625 35 C-10.14707031 34.25621094 -10.66914063 33.51242187 -11.20703125 32.74609375 C-11.72910156 32.00488281 -12.25117188 31.26367188 -12.7890625 30.5 C-13.31274414 29.75363281 -13.83642578 29.00726563 -14.37597656 28.23828125 C-15.47110772 26.72893632 -16.60479319 25.24692418 -17.77246094 23.79296875 C-18.3296582 23.09816406 -18.88685547 22.40335937 -19.4609375 21.6875 C-19.97188965 21.07261719 -20.4828418 20.45773437 -21.00927734 19.82421875 C-22 18 -22 18 -21.81884766 15.84765625 C-21 14 -21 14 -18.4375 12.75 C-17.633125 12.5025 -16.82875 12.255 -16 12 C-14.02 14.64 -12.04 17.28 -10 20 C-8.1379722 18.1379722 -8.91115843 14.73976602 -8.875 12.25 C-8.48350913 5.6216546 -8.48350913 5.6216546 -6.4140625 2.9609375 C-2.17178363 0 -2.17178363 0 0 0 Z " fill="#492B12" transform="translate(314,314)"/>
<path d="M0 0 C3.15591067 2.58210873 5.40902301 4.5280662 6.21875 8.6171875 C6.2730953 12.97839788 6.3000512 16.24129387 3.5 19.75 C-0.13704783 23.05640712 -1.74006112 24.08222901 -6.625 24.625 C-11.8651217 24.08291844 -14.73600311 22.0163297 -18.125 18.0625 C-19.73123136 14.04692159 -20.05996194 10.50979982 -19.25 6.25 C-17.57041513 3.10411087 -15.25152647 0.98445275 -12.375 -1.125 C-7.67328643 -2.50785693 -4.31928681 -2.32576982 0 0 Z " fill="#48270C" transform="translate(275.25,266.75)"/>
<path d="M0 0 C3.12813702 2.10967381 4.31095599 3.2946653 5.6875 6.8125 C6.25407593 11.14051054 6.18867277 14.65980262 4.4375 18.6875 C1.94292488 21.71662693 0.02249511 23.59165878 -3.93359375 24.24609375 C-11.53526029 24.25663698 -11.53526029 24.25663698 -15.375 22.0625 C-19.04131288 17.80484633 -19.70726886 14.50635866 -19.5625 8.99609375 C-19.08062473 4.78721443 -17.30573272 2.63546425 -14.125 0 C-9.10335316 -2.12025089 -4.98558636 -1.78728568 0 0 Z " fill="#49270D" transform="translate(220.3125,206.1875)"/>
<path d="M0 0 C4.8385013 2.73084733 7.62458438 4.35414973 9.32421875 9.8359375 C8.00421875 10.8259375 6.68421875 11.8159375 5.32421875 12.8359375 C3.07264208 11.75184503 1.06293352 10.65233167 -0.98828125 9.2109375 C-4.49174479 7.41846778 -6.78873989 7.34122315 -10.67578125 7.8359375 C-13.29861459 9.12486037 -13.29861459 9.12486037 -14.67578125 11.8359375 C-15.35269715 14.9909542 -15.42180445 17.689178 -14.67578125 20.8359375 C-12.40415598 24.04338181 -9.57693341 25.58126406 -5.80078125 26.6484375 C-4.74890625 26.74125 -4.74890625 26.74125 -3.67578125 26.8359375 C-3.67578125 29.1459375 -3.67578125 31.4559375 -3.67578125 33.8359375 C-10.04154608 34.499038 -13.70299335 32.80335741 -18.67578125 28.8359375 C-23.49162054 23.64964903 -24.03471627 19.43429809 -23.953125 12.5625 C-23.55885148 8.68640261 -22.30667502 6.67453341 -19.67578125 3.8359375 C-13.51677516 -0.81474057 -7.37474741 -3.20828427 0 0 Z " fill="#492A11" transform="translate(209.67578125,328.1640625)"/>
<path d="M0 0 C1.98 0.99 3.96 1.98 6 3 C4.68 6.3 3.36 9.6 2 13 C4.475 13.99 4.475 13.99 7 15 C8.32 12.36 9.64 9.72 11 7 C13.475 7.495 13.475 7.495 16 8 C17 11 17 11 15.5625 14.0625 C15.046875 15.031875 14.53125 16.00125 14 17 C14 17.66 14 18.32 14 19 C15.32 19.66 16.64 20.32 18 21 C19.65 18.03 21.3 15.06 23 12 C27 13 27 13 29 14 C28.37954537 18.23322844 26.89476441 21.52290295 24.9375 25.3125 C24.38964844 26.38113281 23.84179688 27.44976562 23.27734375 28.55078125 C22.85582031 29.35902344 22.43429687 30.16726563 22 31 C15.69048616 30.00973689 10.40748544 26.96038296 4.75 24.125 C3.63625 23.58230469 2.5225 23.03960937 1.375 22.48046875 C0.31796875 21.95324219 -0.7390625 21.42601562 -1.828125 20.8828125 C-2.7965332 20.40215332 -3.76494141 19.92149414 -4.76269531 19.42626953 C-7 18 -7 18 -8 15 C-6.7711083 12.34175909 -5.49812607 9.85391409 -4.0625 7.3125 C-3.48338867 6.2596582 -3.48338867 6.2596582 -2.89257812 5.18554688 C-1.93738227 3.45204328 -0.96984614 1.72534991 0 0 Z " fill="#482910" transform="translate(335,280)"/>
<path d="M0 0 C1.65 0.99 3.3 1.98 5 3 C4.67 3.9075 4.34 4.815 4 5.75 C2.80394277 9.07045807 2.80394277 9.07045807 3 13 C4.32 13 5.64 13 7 13 C8.65218907 11.35627132 8.65218907 11.35627132 10 9.1875 C12.03715381 6.14837652 13.85003934 3.92396441 17 2 C21.18469079 2 23.43937855 2.63022841 26.9375 4.9375 C29.88496662 9.31404134 29.85621327 12.87050412 29 18 C27.45795182 22.51385947 26.00853951 25.32764033 22 28 C20.35 26.35 18.7 24.7 17 23 C17.99 21.6696875 17.99 21.6696875 19 20.3125 C20.98860067 17.01888014 21.43735074 15.71748127 21 12 C18.66461093 11.96127313 18.66461093 11.96127313 16 13 C14.57469294 14.69841979 13.40071864 16.49295673 12.17578125 18.33984375 C10.63470836 20.51577723 9.61332248 21.38510059 7 22 C2.64052405 21.92215222 0.70991205 21.72859395 -2.375 18.5625 C-4.83889183 14.67713212 -5.51735077 12.65615695 -5 8 C-3.54771727 5.17668112 -1.83771131 2.58592235 0 0 Z " fill="#492A11" transform="translate(343,253)"/>
<path d="M0 0 C2.79421995 1.3639173 3.85916915 2.54587683 6 5 C7.125 8.4375 7.125 8.4375 7 12 C4.79529954 16.32460475 2.13515391 19.44014282 -2 22 C-5.59261664 22.58654965 -7.20699566 22.56643167 -10.1875 20.4375 C-13.34180836 16.1954991 -14.97219098 12.64073233 -15.0625 7.3125 C-14 4 -14 4 -11.4375 1.5625 C-7.36601049 -0.28817705 -4.38757615 -0.99440096 0 0 Z " fill="#49290F" transform="translate(317,210)"/>
<path d="M0 0 C2.9375 2.4375 2.9375 2.4375 5 5 C5.33 5.33 5.66 5.66 6 6 C6.5573482 11.68495163 5.58551703 14.57083191 2 19 C-1.50843875 20.75421937 -5.18064495 20.67167968 -9 20 C-12.33475022 17.34581105 -13.5747067 15.86474757 -14.5078125 11.7734375 C-14.85315292 7.28401204 -14.4116495 5.50427064 -11.5 1.9375 C-7.58960049 -0.71565523 -4.61801955 -0.73301898 0 0 Z " fill="#4A280D" transform="translate(223,260)"/>
<path d="M0 0 C2 2 2 2 2.3125 5.625 C2.21567885 10.03843086 1.23137699 15.76862301 -2 19 C-7.6150235 19.44920188 -11.11028323 18.54265272 -16 16 C-17.73696963 12.52606073 -17.58781913 8.7904199 -17 5 C-12.83310394 0.07548648 -6.19643002 -2.12449029 0 0 Z " fill="#F0B57A" transform="translate(303,178)"/>
<path d="M0 0 C3.65907504 0.68607657 5.35167676 1.98984314 8 4.5625 C9.73098259 8.02446518 9.47149742 11.77704927 9 15.5625 C6.88689462 18.9434686 5.37165027 19.44762628 1.5625 20.625 C-2 20.5625 -2 20.5625 -4.875 18.25 C-7.77413938 14.58344138 -8.41285085 12.34751492 -8.34375 7.60546875 C-8 5.5625 -8 5.5625 -5.875 2.5625 C-3 0.5625 -3 0.5625 0 0 Z " fill="#F8F6F5" transform="translate(276,341.4375)"/>
<path d="M0 0 C2.12890625 0.4765625 2.12890625 0.4765625 4.69140625 2.4765625 C6.50376578 6.25887804 7.02500071 9.40845227 6.12890625 13.4765625 C4.79109225 16.39262712 3.72744791 17.31111112 1.12890625 19.4765625 C-1.98980452 20.33497992 -3.53107911 20.05973966 -6.87109375 19.4765625 C-9.64213296 17.32900711 -10.64517727 15.77793555 -11.24609375 12.31640625 C-11.45215 8.45929076 -11.08748101 5.93756146 -9.43359375 2.4140625 C-6.17584344 -0.04911456 -4.01626741 -0.25143025 0 0 Z " fill="#F9F8F7" transform="translate(238.87109375,344.5234375)"/>
<path d="M0 0 C3.97393417 1.66462618 6.9776361 4.3899639 10.1875 7.1875 C15.34142902 11.61942679 20.57894976 15.89569064 26 20 C24.75023244 23.65316671 24.32901247 24.78065836 21 27 C20.10539062 26.2265625 19.21078125 25.453125 18.2890625 24.65625 C11.29842065 18.62883216 4.26737821 12.69333777 -3 7 C-2.38722388 4.03824877 -1.74627478 2.61941217 0 0 Z " fill="#492B12" transform="translate(321,303)"/>
<path d="M0 0 C1.9375 1.0625 1.9375 1.0625 3 3 C3.75471698 9.79245283 3.75471698 9.79245283 1.4375 13.5 C-1.94888329 15.58392818 -4.09385318 15.55802097 -8 15 C-10.4375 13.5 -10.4375 13.5 -12 11 C-12.61014545 8.1910285 -12.65360928 5.80363979 -12 3 C-8.3655827 -1.51548816 -5.40521016 -1.50144727 0 0 Z " fill="#CA8E6C" transform="translate(273,271)"/>
<path d="M0 0 C2.0234375 0.65234375 2.0234375 0.65234375 4.0234375 3.65234375 C4.32421875 5.58984375 4.32421875 5.58984375 4.3359375 7.65234375 C4.35269531 8.33296875 4.36945313 9.01359375 4.38671875 9.71484375 C3.90555606 12.28104478 3.12616105 13.12775262 1.0234375 14.65234375 C-2.02752013 15.26585153 -4.91066783 15.15476224 -7.9765625 14.65234375 C-10.0390625 13.08984375 -10.0390625 13.08984375 -10.9765625 10.65234375 C-11.46040357 6.78161518 -11.49741552 4.55817508 -9.5390625 1.15234375 C-6.12723352 -0.84482443 -3.8372355 -0.46531261 0 0 Z " fill="#CA8E6B" transform="translate(216.9765625,210.34765625)"/>
<path d="M0 0 C3.5 0.5625 3.5 0.5625 5.9375 2.125 C8.10396028 5.50467804 8.06288002 7.62233987 7.5 11.5625 C5.9375 14 5.9375 14 3.5 15.5625 C0.06817525 15.98395216 -2.31547541 16.2337306 -5.375 14.5 C-7.13658168 11.46616489 -7.43977486 9.05555789 -7.5 5.5625 C-5.47546599 1.59778757 -4.42267232 0.71078662 0 0 Z " fill="#4A280D" transform="translate(247.5,222.4375)"/>
<path d="M0 0 C2.375 0.9375 2.375 0.9375 4 3 C4.50786669 6.06431924 4.61329775 8.95008689 4 12 C2.47985637 14.08729202 1.59145183 14.8676388 -0.9375 15.43359375 C-6.43168077 15.4439994 -6.43168077 15.4439994 -9 13.4375 C-10.38885542 10.05216491 -10.45310904 7.62487235 -10 4 C-7.24846472 -0.12730291 -4.82246105 -0.70327557 0 0 Z " fill="#4A2A10" transform="translate(329,189)"/>
<path d="M0 0 C0.66 0.66 1.32 1.32 2 2 C1.83048345 5.22081454 1.18567504 6.76310425 -0.8125 9.3125 C-3 11 -3 11 -7 11 C-10.0183727 5.80839895 -10.0183727 5.80839895 -9.9375 2.25 C-9 0 -9 0 -7.25 -1.4375 C-4.19906766 -2.20023308 -2.74159133 -1.4429428 0 0 Z " fill="#EEB378" transform="translate(317,216)"/>
<path d="M0 0 C0.09796875 0.68707031 0.1959375 1.37414062 0.296875 2.08203125 C0.52117187 3.43361328 0.52117187 3.43361328 0.75 4.8125 C0.88921875 5.70582031 1.0284375 6.59914062 1.171875 7.51953125 C2.18857356 10.56483118 3.26663188 11.3921364 6 13 C7.98014432 13.72351427 9.97821315 14.40265389 12 15 C11.67 15.66 11.34 16.32 11 17 C5.35211947 17.3457886 1.92430871 16.56064053 -3 14 C-4.16343227 11.67313547 -4.19895988 10.15278587 -4.25 7.5625 C-4.28867187 6.38880859 -4.28867187 6.38880859 -4.328125 5.19140625 C-3.97694014 2.84599307 -2.80183549 0 0 0 Z " fill="#DDA571" transform="translate(290,180)"/>
<path d="M0 0 C3.625 0.375 3.625 0.375 7 1 C7.625 4.375 7.625 4.375 8 8 C6 10 6 10 3 10.25 C0 10 0 10 -2 8 C-2.25 5 -2.25 5 -2 2 C-1.34 1.34 -0.68 0.68 0 0 Z " fill="#C88D6A" transform="translate(216,265)"/>
<path d="M0 0 C0.33 0 0.66 0 1 0 C1.268125 1.093125 1.53625 2.18625 1.8125 3.3125 C3.00905129 7.4028906 3.00905129 7.4028906 6 10 C9.10839021 10.7269226 9.10839021 10.7269226 12 11 C10 14 10 14 7.94140625 14.43359375 C1.58611876 14.44402936 1.58611876 14.44402936 -1.0625 12.4375 C-2.33474496 9.1296631 -2.31943205 6.51375259 -2 3 C-1.34 2.01 -0.68 1.02 0 0 Z " fill="#B37D5D" transform="translate(208,211)"/>
<path d="M0 0 C0.33 0 0.66 0 1 0 C1.2475 0.9075 1.495 1.815 1.75 2.75 C3.37153736 6.96599713 5.32260116 9.06811176 9.25 11.25 C9.8275 11.4975 10.405 11.745 11 12 C9 14 9 14 5.625 14.375 C2 14 2 14 -0.4375 12.5 C-2.75514813 8.79176299 -2.41959259 6.33579006 -2 2 C-1.34 1.34 -0.68 0.68 0 0 Z " fill="#B17B5B" transform="translate(263,272)"/>
<path d="M0 0 C0.99 0.33 1.98 0.66 3 1 C3.6875 3.3125 3.6875 3.3125 4 6 C2.8125 7.875 2.8125 7.875 1 9 C-1.0625 8.9375 -1.0625 8.9375 -3 8 C-4.25 5.9375 -4.25 5.9375 -5 4 C-2.6875 1.9375 -2.6875 1.9375 0 0 Z " fill="#F3F1F0" transform="translate(166,298)"/>
<path d="M0 0 C1.32 0 2.64 0 4 0 C7.07692308 5.41538462 7.07692308 5.41538462 6.6875 8.375 C6.460625 8.91125 6.23375 9.4475 6 10 C4.1875 9.875 4.1875 9.875 2 9 C0.1875 6.125 0.1875 6.125 -1 3 C-0.67 2.01 -0.34 1.02 0 0 Z " fill="#522F12" transform="translate(293,260)"/>
<path d="M0 0 C0.66 0.33 1.32 0.66 2 1 C2.3548954 2.99628664 2.68578929 4.99690671 3 7 C3.97348627 9.28480253 3.97348627 9.28480253 5 11 C3.35 11.33 1.7 11.66 0 12 C-3.05023923 6.75358852 -3.05023923 6.75358852 -2.8125 3.1875 C-2 1 -2 1 0 0 Z " fill="#DDA470" transform="translate(310,215)"/>
<path d="M0 0 C-0.98041419 2.45103548 -1.6513818 3.76758786 -3.875 5.25 C-6 6 -6 6 -10 6 C-9.75 3.625 -9.75 3.625 -9 1 C-5.89666169 -1.43833725 -3.67370652 -1.02047403 0 0 Z " fill="#4D2C0F" transform="translate(240,290)"/>
<path d="M0 0 C0 1.32 0 2.64 0 4 C-2.1875 5.8125 -2.1875 5.8125 -5 7 C-7.8125 6.6875 -7.8125 6.6875 -10 6 C-10 5.01 -10 4.02 -10 3 C-6.27034861 0.96564469 -4.33094958 0 0 0 Z " fill="#4D2B0F" transform="translate(276,247)"/>
<path d="M0 0 C2.375 0.25 2.375 0.25 5 1 C6.375 2.75 6.375 2.75 7 5 C6.625 7.75 6.625 7.75 6 10 C3.54896452 9.01958581 2.23241214 8.3486182 0.75 6.125 C0 4 0 4 0 0 Z " fill="#4C2A0E" transform="translate(193,239)"/>
<path d="M0 0 C2.125 0.375 2.125 0.375 4 1 C3.43628586 4.26954202 2.50037734 5.82575883 0 8 C-0.99 7.67 -1.98 7.34 -3 7 C-2.25 2.25 -2.25 2.25 0 0 Z " fill="#512F12" transform="translate(246,202)"/>
<path d="M0 0 C2.86724686 0.57344937 3.8614515 0.8614515 6 3 C6 4.32 6 5.64 6 7 C1.25 6.25 1.25 6.25 -1 4 C-0.625 1.875 -0.625 1.875 0 0 Z " fill="#4A290D" transform="translate(228,247)"/>
<path d="M0 0 C2.375 -0.125 2.375 -0.125 5 0 C7 2 7 2 7.125 4.625 C7.08375 5.40875 7.0425 6.1925 7 7 C3.76509224 6.44225728 2.02144994 5.62788492 0 3 C0 2.01 0 1.02 0 0 Z " fill="#4E2C10" transform="translate(232,187)"/>
<path d="M0 0 C2.0625 0.4375 2.0625 0.4375 4 1 C4 2.65 4 4.3 4 6 C2.0625 6.5625 2.0625 6.5625 0 7 C-1 6 -1 6 -1.125 3.5 C-1 1 -1 1 0 0 Z " fill="#4D2B0F" transform="translate(259,302)"/>
<path d="M0 0 C0.5775 0.763125 1.155 1.52625 1.75 2.3125 C3.71703093 4.66200917 5.48476744 6.29323505 8 8 C5.125 8.125 5.125 8.125 2 8 C0 6 0 6 -0.125 2.875 C-0.08375 1.92625 -0.0425 0.9775 0 0 Z " fill="#B27C5C" transform="translate(214,267)"/>
<path d="M0 0 C1.98 0.495 1.98 0.495 4 1 C4 2.32 4 3.64 4 5 C2.35 4.67 0.7 4.34 -1 4 C-0.67 2.68 -0.34 1.36 0 0 Z " fill="#C58B68" transform="translate(246,228)"/>
<path d="M0 0 C1.98 0.495 1.98 0.495 4 1 C3.67 2.32 3.34 3.64 3 5 C1.68 5 0.36 5 -1 5 C-0.67 3.35 -0.34 1.7 0 0 Z " fill="#EAB076" transform="translate(325,194)"/>
</svg>
